<!--?xml version="1.0" encoding="utf-8"?-->
<!-- Svg Vector Icons : http://www.onlinewebfonts.com/icon -->

<svg version="1.1" xmlns="http://www.w3.org/2000/svg" xmlns:xlink="http://www.w3.org/1999/xlink" x="0px" y="0px" viewBox="0 0 256 256" enable-background="new 0 0 256 256" xml:space="preserve">
<metadata> Svg Vector Icons : http://www.onlinewebfonts.com/icon </metadata>
<g><g><g><path fill="#ffffff" data-title="Layer 0" xs="0" d="M11.4,11.4L10,12.7v87.2v87.2l2.3-1.3c6.8-3.9,18.5-9.7,19.5-9.7c0.6,0,4.3,1.6,8.2,3.6s7.3,3.6,7.5,3.6c0.3,0,4.1-5.4,8.5-12c11.5-17.3,10.9-17.4,20.9,2.3c3.9,7.8,7.2,14.1,7.4,14.1s3.3-6.2,7.1-13.7s7.3-14,7.9-14.5c2.6-1.9,3.9-1.1,11.3,6.2c3.9,3.8,7.1,6.8,7.2,6.7c0.1-0.1,3.6-8.7,7.7-19.1c4.5-11.3,7.9-19.2,8.6-19.8c0.6-0.5,1.9-0.9,2.8-0.9c1.4,0,2.8,1.1,8.6,6.9c3.9,3.8,7.1,6.8,7.2,6.7c0.1-0.1,3.6-8.6,7.7-19l7.4-18.7l8.8-13.2c7.2-10.7,9.8-14.3,14-18.6l5.3-5.3h-4.3c-3.8,0-4.4-0.2-5.6-1.4c-1.8-1.7-1.8-4.3,0-6c1.3-1.4,1.4-1.4,11.7-1.4c14,0,13.1-0.9,13.1,13.1c0,10.3,0,10.4-1.4,11.7c-1.7,1.8-4.3,1.8-6,0c-1.2-1.1-1.4-1.8-1.4-5.6v-4.3l-4.7,4.6c-3.7,3.7-6.6,7.4-13.4,17.6l-8.7,12.9l-8.7,22c-5.3,13.3-9.2,22.4-9.9,22.9c-0.6,0.5-1.9,1-2.8,1c-1.4,0-2.8-1.1-8.6-6.9c-3.9-3.8-7.1-6.8-7.2-6.7c-0.1,0.1-3.6,8.7-7.7,19.1c-4.5,11.3-7.9,19.2-8.6,19.8c-0.6,0.5-1.9,1-2.8,1c-1.4,0-2.8-1.1-8.9-7.2l-7.2-7.2L95.1,186c-8.4,16.8-8.8,17.2-12.3,16c-1.3-0.4-2.6-2.7-8.9-15.1c-4-8.1-7.5-14.6-7.7-14.6c-0.2,0-3.4,4.6-7,10.2c-3.7,5.6-7.2,10.4-7.7,10.7c-1.8,0.9-3.2,0.5-11.4-3.6l-8.2-4.1L21,190.5l-10.8,5.2l-0.2,23.8L10,243.3l1.3,1.3l1.4,1.4H128h115.3l1.3-1.4l1.4-1.3V128V12.7l-1.4-1.3l-1.3-1.4H128H12.7L11.4,11.4z"/></g></g></g>
</svg>